<svg aria-hidden="true" style="position: absolute; width: 0; height: 0; overflow: hidden;" version="1.1" xmlns="http://www.w3.org/2000/svg" xmlns:xlink="http://www.w3.org/1999/xlink">
<defs>
<symbol id="icon-bi_chevron-double-down" viewBox="0 0 32 32">
<path fill="#fff" style="fill: var(--color1, #fff)" d="M3.292 13.292c0.093-0.093 0.203-0.167 0.325-0.217s0.252-0.076 0.383-0.076c0.132 0 0.262 0.026 0.383 0.076s0.232 0.124 0.325 0.217l11.292 11.294 11.292-11.294c0.188-0.188 0.442-0.293 0.708-0.293s0.52 0.105 0.708 0.293 0.293 0.443 0.293 0.708c0 0.266-0.105 0.52-0.293 0.708l-12 12c-0.093 0.093-0.203 0.167-0.325 0.217s-0.252 0.076-0.383 0.076-0.262-0.026-0.383-0.076c-0.121-0.050-0.232-0.124-0.325-0.217l-12-12c-0.093-0.093-0.167-0.203-0.217-0.325s-0.076-0.252-0.076-0.383c0-0.132 0.026-0.262 0.076-0.383s0.124-0.232 0.217-0.325z"></path>
<path fill="#fff" style="fill: var(--color1, #fff)" d="M3.292 5.292c0.093-0.093 0.203-0.167 0.325-0.217s0.252-0.076 0.383-0.076c0.132 0 0.262 0.026 0.383 0.076s0.232 0.124 0.325 0.217l11.292 11.294 11.292-11.294c0.093-0.093 0.203-0.167 0.325-0.217s0.252-0.076 0.383-0.076c0.131 0 0.262 0.026 0.383 0.076s0.232 0.124 0.325 0.217 0.167 0.203 0.217 0.325c0.050 0.121 0.076 0.252 0.076 0.383s-0.026 0.262-0.076 0.383c-0.050 0.121-0.124 0.232-0.217 0.325l-12 12c-0.093 0.093-0.203 0.167-0.325 0.217s-0.252 0.076-0.383 0.076-0.262-0.026-0.383-0.076c-0.121-0.050-0.232-0.124-0.325-0.217l-12-12c-0.093-0.093-0.167-0.203-0.217-0.325s-0.076-0.252-0.076-0.383c0-0.132 0.026-0.262 0.076-0.383s0.124-0.232 0.217-0.325z"></path>
</symbol>
<symbol id="icon-bx_bx-search" viewBox="0 0 32 32">
<path fill="#fff" style="fill: var(--color1, #fff)" d="M13.333 24c2.367-0.001 4.665-0.793 6.529-2.251l5.861 5.861 1.885-1.885-5.861-5.861c1.459-1.864 2.251-4.163 2.252-6.531 0-5.881-4.785-10.667-10.667-10.667s-10.667 4.785-10.667 10.667c0 5.881 4.785 10.667 10.667 10.667zM13.333 5.333c4.412 0 8 3.588 8 8s-3.588 8-8 8-8-3.588-8-8c0-4.412 3.588-8 8-8z"></path>
</symbol>
<symbol id="icon-Group-4" viewBox="0 0 38 32">
<path fill="#fff" style="fill: var(--color1, #fff)" d="M24.332 10v-2c0-4.411-3.969-8-8.848-8s-8.848 3.589-8.848 8v2h-6.636v17c0 2.761 2.476 5 5.53 5h19.908c3.054 0 5.53-2.239 5.53-5v-17h-6.636zM11.060 8c0-2.206 1.985-4 4.424-4s4.424 1.794 4.424 4v2h-8.848v-2zM22.12 15.5c-0.916 0-1.659-0.672-1.659-1.5s0.743-1.5 1.659-1.5c0.916 0 1.659 0.672 1.659 1.5s-0.743 1.5-1.659 1.5zM8.848 15.5c-0.916 0-1.659-0.672-1.659-1.5s0.743-1.5 1.659-1.5c0.916 0 1.659 0.672 1.659 1.5s-0.743 1.5-1.659 1.5z"></path>
<path fill="#fff" style="fill: var(--color1, #fff)" d="M36.741 7.704c0 3.6-3.184 6.519-7.111 6.519s-7.111-2.918-7.111-6.519c0-3.6 3.184-6.519 7.111-6.519s7.111 2.918 7.111 6.519z"></path>
<path fill="#ff006b" style="fill: var(--color2, #ff006b)" d="M27.911 3.852h3.081c0.409 0 0.8 0.162 1.089 0.451s0.451 0.681 0.451 1.089v1.541c0 0.409-0.162 0.801-0.451 1.089s-0.681 0.451-1.089 0.451h-1.541v1.541h3.081v1.541h-4.622v-3.081c0-0.409 0.162-0.801 0.451-1.089s0.681-0.451 1.089-0.451h1.541v-1.541h-3.081v-1.541zM30.222 0c1.012 0 2.013 0.199 2.948 0.586s1.784 0.955 2.499 1.67 1.283 1.565 1.67 2.499c0.387 0.935 0.586 1.936 0.586 2.948 0 2.043-0.812 4.003-2.256 5.447s-3.404 2.256-5.447 2.256c-1.012 0-2.013-0.199-2.948-0.586s-1.784-0.955-2.499-1.67c-1.445-1.445-2.256-3.404-2.256-5.447s0.812-4.003 2.256-5.447c1.445-1.445 3.404-2.256 5.447-2.256zM30.222 1.541c-1.634 0-3.202 0.649-4.358 1.805s-1.805 2.723-1.805 4.358 0.649 3.202 1.805 4.358c1.156 1.156 2.723 1.805 4.358 1.805s3.202-0.649 4.358-1.805c1.156-1.156 1.805-2.723 1.805-4.358s-0.649-3.202-1.805-4.358c-1.156-1.156-2.723-1.805-4.358-1.805z"></path>
</symbol>
<symbol id="icon-Vector-1" viewBox="0 0 39 32">
<path fill="#fff" style="fill: var(--color1, #fff)" d="M37.287 12.8h-35.617c-1.536 0-1.67 1.43-1.67 3.2s0.134 3.2 1.67 3.2h35.617c1.536 0 1.67-1.43 1.67-3.2s-0.134-3.2-1.67-3.2zM37.287 25.6h-35.617c-1.536 0-1.67 1.43-1.67 3.2s0.134 3.2 1.67 3.2h35.617c1.536 0 1.67-1.43 1.67-3.2s-0.134-3.2-1.67-3.2zM1.67 6.4h35.617c1.536 0 1.67-1.43 1.67-3.2s-0.134-3.2-1.67-3.2h-35.617c-1.536 0-1.67 1.43-1.67 3.2s0.134 3.2 1.67 3.2z"></path>
</symbol>
<symbol id="icon-instagram-2" viewBox="0 0 32 32">
<path fill="#f4f4fd" style="fill: var(--color1, #f4f4fd)" d="M31.969 9.408c-0.075-1.7-0.35-2.869-0.744-3.882-0.406-1.075-1.031-2.038-1.85-2.838-0.8-0.813-1.769-1.444-2.832-1.844-1.019-0.394-2.182-0.669-3.882-0.744-1.713-0.081-2.257-0.1-6.601-0.1s-4.888 0.019-6.595 0.094c-1.7 0.075-2.869 0.35-3.882 0.744-1.075 0.406-2.038 1.031-2.838 1.85-0.813 0.8-1.444 1.769-1.844 2.832-0.394 1.019-0.669 2.182-0.744 3.882-0.081 1.713-0.1 2.257-0.1 6.601s0.019 4.888 0.094 6.595c0.075 1.7 0.35 2.869 0.744 3.882 0.406 1.075 1.038 2.038 1.85 2.838 0.8 0.813 1.769 1.444 2.832 1.844 1.019 0.394 2.182 0.669 3.882 0.744 1.706 0.075 2.25 0.094 6.595 0.094s4.888-0.018 6.595-0.094c1.7-0.075 2.869-0.35 3.882-0.744 2.151-0.831 3.851-2.532 4.682-4.682 0.394-1.019 0.669-2.182 0.744-3.882 0.075-1.707 0.094-2.251 0.094-6.595s-0.006-4.888-0.081-6.595zM29.087 22.473c-0.069 1.563-0.331 2.407-0.55 2.969-0.538 1.394-1.644 2.501-3.038 3.038-0.563 0.219-1.413 0.481-2.969 0.55-1.688 0.075-2.194 0.094-6.464 0.094s-4.782-0.018-6.464-0.094c-1.563-0.069-2.407-0.331-2.969-0.55-0.694-0.256-1.325-0.663-1.838-1.194-0.531-0.519-0.938-1.144-1.194-1.838-0.219-0.563-0.481-1.413-0.55-2.969-0.075-1.688-0.094-2.194-0.094-6.464s0.019-4.782 0.094-6.464c0.069-1.563 0.331-2.407 0.55-2.969 0.256-0.694 0.663-1.325 1.2-1.838 0.519-0.531 1.144-0.938 1.838-1.194 0.563-0.219 1.413-0.481 2.969-0.55 1.688-0.075 2.194-0.094 6.464-0.094 4.276 0 4.782 0.019 6.464 0.094 1.563 0.069 2.407 0.331 2.969 0.55 0.694 0.256 1.325 0.662 1.838 1.194 0.531 0.519 0.938 1.144 1.194 1.838 0.219 0.563 0.481 1.413 0.55 2.969 0.075 1.688 0.094 2.194 0.094 6.464s-0.019 4.77-0.094 6.457z"></path>
<path fill="#f4f4fd" style="fill: var(--color1, #f4f4fd)" d="M16.059 7.782c-4.538 0-8.22 3.682-8.22 8.22s3.682 8.22 8.22 8.22c4.538 0 8.22-3.682 8.22-8.22s-3.682-8.22-8.22-8.22zM16.059 21.335c-2.944 0-5.332-2.388-5.332-5.332s2.388-5.332 5.332-5.332c2.944 0 5.332 2.388 5.332 5.332s-2.388 5.332-5.332 5.332z"></path>
<path fill="#f4f4fd" style="fill: var(--color1, #f4f4fd)" d="M26.524 7.457c0 1.060-0.859 1.919-1.919 1.919s-1.919-0.859-1.919-1.919c0-1.060 0.859-1.919 1.919-1.919s1.919 0.859 1.919 1.919z"></path>
</symbol>
<symbol id="icon-facebook-1" viewBox="0 0 32 32">
<path fill="#f4f4fd" style="fill: var(--color1, #f4f4fd)" d="M21.329 5.313h2.921v-5.088c-0.504-0.069-2.237-0.225-4.256-0.225-4.212 0-7.097 2.649-7.097 7.519v4.481h-4.648v5.688h4.648v14.312h5.699v-14.311h4.46l0.708-5.688h-5.169v-3.919c0.001-1.644 0.444-2.769 2.735-2.769z"></path>
</symbol>
<symbol id="icon-twitter-1" viewBox="0 0 32 32">
<path fill="#f4f4fd" style="fill: var(--color1, #f4f4fd)" d="M32 6.078c-1.19 0.522-2.458 0.868-3.78 1.036 1.36-0.812 2.398-2.088 2.886-3.626-1.268 0.756-2.668 1.29-4.16 1.588-1.204-1.282-2.92-2.076-4.792-2.076-3.632 0-6.556 2.948-6.556 6.562 0 0.52 0.044 1.020 0.152 1.496-5.454-0.266-10.28-2.88-13.522-6.862-0.566 0.982-0.898 2.106-0.898 3.316 0 2.272 1.17 4.286 2.914 5.452-1.054-0.020-2.088-0.326-2.964-0.808 0 0.020 0 0.046 0 0.072 0 3.188 2.274 5.836 5.256 6.446-0.534 0.146-1.116 0.216-1.72 0.216-0.42 0-0.844-0.024-1.242-0.112 0.85 2.598 3.262 4.508 6.13 4.57-2.232 1.746-5.066 2.798-8.134 2.798-0.538 0-1.054-0.024-1.57-0.090 2.906 1.874 6.35 2.944 10.064 2.944 12.072 0 18.672-10 18.672-18.668 0-0.29-0.010-0.57-0.024-0.848 1.302-0.924 2.396-2.078 3.288-3.406z"></path>
</symbol>
<symbol id="icon-Vector-2" viewBox="0 0 32 32">
<path fill="#fff" style="fill: var(--color1, #fff)" d="M24.332 10v-2c0-4.411-3.969-8-8.848-8s-8.848 3.589-8.848 8v2h-6.636v17c0 2.761 2.476 5 5.53 5h19.908c3.054 0 5.53-2.239 5.53-5v-17h-6.636zM11.060 8c0-2.206 1.985-4 4.424-4s4.424 1.794 4.424 4v2h-8.848v-2zM22.12 15.5c-0.916 0-1.659-0.672-1.659-1.5s0.743-1.5 1.659-1.5c0.916 0 1.659 0.672 1.659 1.5s-0.743 1.5-1.659 1.5zM8.848 15.5c-0.916 0-1.659-0.672-1.659-1.5s0.743-1.5 1.659-1.5c0.916 0 1.659 0.672 1.659 1.5s-0.743 1.5-1.659 1.5z"></path>
</symbol>
<symbol id="icon-truck" viewBox="0 0 32 32">
<path fill="#000" style="fill: var(--color1, #000)" d="M29.92 16.61l-3-7c-0.077-0.181-0.205-0.335-0.368-0.443s-0.356-0.166-0.552-0.166h-3v-2c0-0.265-0.105-0.52-0.293-0.707s-0.442-0.293-0.707-0.293h-19c-0.265 0-0.52 0.105-0.707 0.293s-0.293 0.442-0.293 0.707v17c0 0.265 0.105 0.52 0.293 0.707s0.442 0.293 0.707 0.293h2.14c0.23 0.847 0.733 1.595 1.431 2.129s1.551 0.822 2.429 0.822c0.878 0 1.732-0.289 2.429-0.822s1.2-1.281 1.431-2.129h6.28c0.23 0.847 0.733 1.595 1.431 2.129s1.551 0.822 2.429 0.822c0.878 0 1.732-0.289 2.429-0.822s1.2-1.281 1.431-2.129h2.14c0.265 0 0.52-0.105 0.707-0.293s0.293-0.442 0.293-0.707v-7c-0-0.134-0.027-0.267-0.080-0.39zM23 11h2.34l2.14 5h-4.48v-5zM9 26c-0.396 0-0.782-0.117-1.111-0.337s-0.585-0.532-0.737-0.898-0.191-0.768-0.114-1.156c0.077-0.388 0.268-0.744 0.547-1.024s0.636-0.47 1.024-0.547c0.388-0.077 0.79-0.038 1.156 0.114s0.678 0.408 0.898 0.737c0.22 0.329 0.337 0.716 0.337 1.111 0 0.53-0.211 1.039-0.586 1.414s-0.884 0.586-1.414 0.586zM19.14 23h-6.28c-0.23-0.847-0.733-1.595-1.431-2.129s-1.551-0.822-2.429-0.822c-0.878 0-1.732 0.289-2.429 0.822s-1.2 1.281-1.431 2.129h-1.14v-15h17v12.56c-0.455 0.264-0.854 0.616-1.173 1.035s-0.553 0.896-0.687 1.405zM23 26c-0.396 0-0.782-0.117-1.111-0.337s-0.585-0.532-0.737-0.898-0.191-0.768-0.114-1.156c0.077-0.388 0.268-0.744 0.547-1.024s0.636-0.47 1.024-0.547c0.388-0.077 0.79-0.038 1.156 0.114s0.678 0.408 0.898 0.737c0.22 0.329 0.337 0.716 0.337 1.111 0 0.53-0.211 1.039-0.586 1.414s-0.884 0.586-1.414 0.586zM28 23h-1.14c-0.221-0.856-0.72-1.615-1.418-2.158s-1.557-0.839-2.442-0.842v-2h5v5z"></path>
</symbol>
<symbol id="icon-price" viewBox="0 0 32 32">
<path fill="#000" style="fill: var(--color1, #000)" d="M30.92 17.788l-16.666-16.698c-1.48-1.48-3.934-1.428-5.48 0.122l-0.178 0.178-0.068-0.068c-1.71-1.712-4.554-1.642-6.352 0.158l-0.51 0.512c-1.798 1.798-1.866 4.646-0.156 6.358l0.070 0.070-0.33 0.332c-1.546 1.546-1.602 4.004-0.12 5.488l16.666 16.698c1.48 1.482 3.938 1.428 5.48-0.12l7.526-7.54c1.548-1.55 1.6-4.006 0.118-5.49zM6.866 10.336c-1.732 0-3.134-1.468-3.138-3.282 0-1.812 1.406-3.28 3.138-3.28s3.128 1.47 3.134 3.28c-0.006 1.814-1.406 3.282-3.134 3.282zM24.868 26.154l-2.168-2.17c-1.304 0.926-2.938 1.218-4.368 0.724-0.163-0.055-0.313-0.142-0.442-0.256s-0.232-0.254-0.304-0.41c-0.076-0.16-0.119-0.335-0.126-0.512s0.022-0.354 0.086-0.52c0.123-0.331 0.371-0.602 0.69-0.755s0.685-0.176 1.020-0.065c0.476 0.164 1.020 0.094 1.522-0.136l-2.506-2.516c-1.906 1.364-4.438 1.324-5.984-0.218-1.556-1.554-1.59-4.094-0.208-5.996l-2.124-2.126 1.258-1.258 2.138 2.13c1.316-0.922 2.952-1.214 4.384-0.718 0.165 0.057 0.317 0.148 0.446 0.265s0.234 0.26 0.307 0.418c0.073 0.159 0.114 0.331 0.119 0.505s-0.025 0.349-0.088 0.511c-0.127 0.33-0.375 0.599-0.694 0.751s-0.684 0.176-1.020 0.067c-0.476-0.166-1.016-0.098-1.516 0.126l2.524 2.514c1.894-1.33 4.396-1.276 5.93 0.256 1.534 1.534 1.594 4.026 0.266 5.91l2.16 2.152-1.302 1.326z"></path>
<path fill="#000" style="fill: var(--color2, #000)" d="M14.248 17.444c0.536 0.534 1.396 0.59 2.162 0.214l-2.376-2.386c-0.378 0.77-0.324 1.634 0.214 2.172z"></path>
<path fill="#000" style="fill: var(--color2, #000)" d="M21.848 18.702c-0.516-0.518-1.336-0.584-2.082-0.248l2.332 2.324c0.334-0.742 0.266-1.562-0.25-2.076z"></path>
</symbol>
<symbol id="icon-chat" viewBox="0 0 32 32">
<path fill="#000" style="fill: var(--color1, #000)" d="M28 26v6c-0.146-0.083-0.354-0.208-0.625-0.375s-0.833-0.625-1.687-1.375c-0.854-0.75-1.708-1.625-2.563-2.625-1.021 0.25-2.063 0.375-3.125 0.375-1.521 0-2.922-0.156-4.203-0.469s-2.328-0.698-3.141-1.156c-0.813-0.458-1.505-0.969-2.078-1.531s-0.979-1.083-1.219-1.562c-0.24-0.479-0.359-0.906-0.359-1.281h3c2.688 0 5.078-0.469 7.172-1.406s3.755-2.323 4.984-4.156c1.229-1.833 1.844-3.979 1.844-6.438 4 2.021 6 4.854 6 8.5 0 2.979-1.333 5.479-4 7.5zM12 20c-1.063 0-2.104-0.125-3.125-0.375-0.854 1-1.687 1.865-2.5 2.594s-1.417 1.208-1.813 1.438l-0.563 0.344v-6c-2.667-2.021-4-4.521-4-7.5 0-1.896 0.536-3.651 1.609-5.266s2.531-2.891 4.375-3.828c1.844-0.938 3.854-1.406 6.031-1.406s4.187 0.469 6.031 1.406c1.844 0.938 3.297 2.214 4.359 3.828s1.594 3.37 1.594 5.266-0.542 3.573-1.625 5.031c-1.083 1.458-2.531 2.568-4.344 3.328s-3.823 1.141-6.031 1.141zM12 2c-1.813 0-3.484 0.354-5.016 1.063s-2.745 1.677-3.641 2.906-1.344 2.568-1.344 4.016c0 1.448 0.448 2.786 1.344 4.016s2.109 2.203 3.641 2.922c1.531 0.719 3.203 1.078 5.016 1.078s3.484-0.359 5.016-1.078c1.531-0.719 2.745-1.693 3.641-2.922s1.344-2.568 1.344-4.016c0-1.448-0.448-2.786-1.344-4.016s-2.109-2.198-3.641-2.906c-1.531-0.708-3.203-1.063-5.016-1.063z"></path>
</symbol>
</defs>
</svg>
